<svg width="1655" height="1651" xmlns="http://www.w3.org/2000/svg"><defs><radialGradient cx="89.765%" cy="16.111%" fx="89.765%" fy="16.111%" r="119.039%" gradientTransform="matrix(.9998 0 0 1 0 0)" id="h"><stop stop-color="#FFDE08" offset="8.407%"/><stop stop-color="#FFD609" stop-opacity=".832" offset="20.81%"/><stop stop-color="#FFBF0B" stop-opacity=".568" offset="40.327%"/><stop stop-color="#FF9B0F" stop-opacity=".242" offset="64.369%"/><stop stop-color="#FF7B12" stop-opacity="0" offset="82.238%"/></radialGradient><radialGradient cx="89.414%" cy="18.943%" fx="89.414%" fy="18.943%" r="113.745%" gradientTransform="matrix(.99763 0 0 1 .002 0)" id="a"><stop stop-color="#FFF44F" offset="0%"/><stop stop-color="#FF980E" offset="29.485%"/><stop stop-color="#FF5D36" offset="43.152%"/><stop stop-color="#FF3750" offset="53.021%"/><stop stop-color="#F5156C" offset="74.932%"/><stop stop-color="#F1136E" offset="76.479%"/><stop stop-color="#DA057A" offset="88.01%"/><stop stop-color="#D2007F" offset="95.278%"/></radialGradient><radialGradient cx="99.114%" cy="12.471%" fx="99.114%" fy="12.471%" r="133.566%" gradientTransform="matrix(.99763 0 0 1 .002 0)" id="c"><stop stop-color="#FD0" stop-opacity=".6" offset="0%"/><stop stop-color="#FFD801" stop-opacity=".524" offset="8.367%"/><stop stop-color="#FECA05" stop-opacity=".435" offset="18.224%"/><stop stop-color="#FEB20C" stop-opacity=".339" offset="28.837%"/><stop stop-color="#FD9115" stop-opacity=".239" offset="39.979%"/><stop stop-color="#FB6621" stop-opacity=".134" offset="51.54%"/><stop stop-color="#F9332F" stop-opacity=".028" offset="63.287%"/><stop stop-color="#F92433" stop-opacity="0" offset="66.404%"/></radialGradient><radialGradient cx="52.856%" cy="55.637%" fx="52.856%" fy="55.637%" r="172.31%" gradientTransform="matrix(.99763 0 0 1 .001 0)" id="d"><stop stop-color="#960E18" offset="15.285%"/><stop stop-color="#CC2335" stop-opacity=".554" offset="20.613%"/><stop stop-color="#F13148" stop-opacity=".191" offset="24.948%"/><stop stop-color="#FF3750" stop-opacity="0" offset="27.235%"/></radialGradient><radialGradient cx="39.848%" cy="53.471%" fx="39.848%" fy="53.471%" r="172.31%" gradientTransform="matrix(.99763 0 0 1 0 0)" id="e"><stop stop-color="#960E18" offset="11.291%"/><stop stop-color="#CC2335" stop-opacity=".554" offset="18.935%"/><stop stop-color="#F13148" stop-opacity=".191" offset="25.153%"/><stop stop-color="#FF3750" stop-opacity="0" offset="28.435%"/></radialGradient><radialGradient cx="122.619%" cy="1.812%" fx="122.619%" fy="1.812%" r="260.043%" gradientTransform="matrix(1 0 0 .98294 0 0)" id="k"><stop stop-color="#FFF44F" offset="5.357%"/><stop stop-color="#FF980E" offset="45.727%"/><stop stop-color="#FF8424" offset="52.105%"/><stop stop-color="#FF7634" offset="58.705%"/><stop stop-color="#FF7139" offset="63.934%"/></radialGradient><radialGradient cx="89.765%" cy="16.111%" fx="89.765%" fy="16.111%" r="119.039%" gradientTransform="matrix(.9998 0 0 1 0 0)" id="g"><stop stop-color="#FF980E" offset="0%"/><stop stop-color="#FF7139" offset="29.501%"/><stop stop-color="#FF5B51" offset="48.465%"/><stop stop-color="#FF4F5E" offset="62.6%"/><stop stop-color="#FF4055" offset="73.652%"/><stop stop-color="#FF3750" offset="84.283%"/></radialGradient><radialGradient cx="8.287%" cy="23.648%" fx="8.287%" fy="23.648%" r="67.317%" gradientTransform="matrix(.99763 0 0 1 0 0)" id="b"><stop stop-color="#B5007F" offset="0%"/><stop stop-color="#F5156C" stop-opacity="0" offset="100%"/></radialGradient><radialGradient cx="62.269%" cy="53.143%" fx="62.269%" fy="53.143%" r="58.382%" gradientTransform="scale(.9998 1) rotate(75.686 .623 .532)" id="i"><stop stop-color="#FF3750" offset="36.338%"/><stop stop-color="#FF444B" stop-opacity=".789" offset="41.114%"/><stop stop-color="#FF7139" stop-opacity="0" offset="59.022%"/></radialGradient><radialGradient cx="52.207%" cy="58.088%" fx="52.207%" fy="58.088%" r="58.382%" gradientTransform="scale(.9998 1) rotate(75.686 .522 .58)" id="j"><stop stop-color="#FF3750" stop-opacity=".8" offset="21.589%"/><stop stop-color="#FF444B" stop-opacity=".632" offset="27.021%"/><stop stop-color="#FF7139" stop-opacity="0" offset="47.392%"/></radialGradient><linearGradient x1="40.872%" y1="37.077%" x2="81.663%" y2="83.731%" id="f"><stop stop-color="#FFBC04" offset="0%"/><stop stop-color="#FFA202" stop-opacity=".489" offset="25.969%"/><stop stop-color="#FF8E00" stop-opacity="0" offset="50.781%"/></linearGradient><linearGradient x1="73.776%" y1="8.65%" x2="22.741%" y2="87.277%" id="l"><stop stop-color="#FFF44F" stop-opacity=".8" offset="0%"/><stop stop-color="#FFF44F" stop-opacity="0" offset="75%"/></linearGradient><linearGradient x1="50%" y1="100.409%" x2="50%" y2="1.012%" id="m"><stop stop-color="#3A8EE6" offset="0%"/><stop stop-color="#5C79F0" offset="23.593%"/><stop stop-color="#9059FF" offset="62.933%"/><stop stop-color="#C139E6" offset="100%"/></linearGradient><linearGradient x1="16.545%" y1="8.638%" x2="90.313%" y2="76.108%" id="n"><stop stop-color="#9059FF" stop-opacity="0" offset="80.543%"/><stop stop-color="#6E008B" stop-opacity=".5" offset="100%"/></linearGradient></defs><g fill-rule="nonzero" fill="none"><path d="M1487.948 324.27C1338.478 127.893 1105.447 5.507 860.358.627c-191.995-3.822-324.654 53.737-399.711 100.01 100.422-58.1 245.725-91.054 372.95-89.432 327.29 4.17 678.776 226.497 730.981 627.28 59.928 460.065-261.254 844.04-713.113 845.2-497.107 1.274-799.451-437.844-720.43-832.257 3.945-19.696 1.976-38.852 8.554-57.467 3.766-69.35 30.026-178.053 86.674-289.124-57.237 29.543-130.13 123.016-166.12 209.6-51.885 124.82-70.17 274.09-53.71 416.106 1.239 10.69 2.361 21.35 3.763 31.948 66.58 390.594 406.647 687.955 816.214 687.955 457.335 0 828.078-370.743 828.078-828.075 0-186.993-62.005-359.486-166.54-498.103z" fill="url(#a)"/><path d="M1487.948 324.27C1338.478 127.893 1105.447 5.507 860.358.627c-191.995-3.822-324.654 53.737-399.711 100.01 100.422-58.1 245.725-91.054 372.95-89.432 327.29 4.17 678.776 226.497 730.981 627.28 59.928 460.065-261.254 844.04-713.113 845.2-497.107 1.274-799.451-437.844-720.43-832.257 3.945-19.696 1.976-38.852 8.554-57.467 3.766-69.35 30.026-178.053 86.674-289.124-57.237 29.543-130.13 123.016-166.12 209.6-51.885 124.82-70.17 274.09-53.71 416.106 1.239 10.69 2.361 21.35 3.763 31.948 66.58 390.594 406.647 687.955 816.214 687.955 457.335 0 828.078-370.743 828.078-828.075 0-186.993-62.005-359.486-166.54-498.103z" opacity=".67" fill="url(#b)"/><path d="M1487.948 324.27C1338.478 127.893 1105.447 5.507 860.358.627c-191.995-3.822-324.654 53.737-399.711 100.01 100.422-58.1 245.725-91.054 372.95-89.432 327.29 4.17 678.776 226.497 730.981 627.28 59.928 460.065-261.254 844.04-713.113 845.2-497.107 1.274-799.451-437.844-720.43-832.257 3.945-19.696 1.976-38.852 8.554-57.467 3.766-69.35 30.026-178.053 86.674-289.124-57.237 29.543-130.13 123.016-166.12 209.6-51.885 124.82-70.17 274.09-53.71 416.106 1.239 10.69 2.361 21.35 3.763 31.948 66.58 390.594 406.647 687.955 816.214 687.955 457.335 0 828.078-370.743 828.078-828.075 0-186.993-62.005-359.486-166.54-498.103z" fill="url(#c)"/><path d="M1487.948 324.27C1338.478 127.893 1105.447 5.507 860.358.627c-191.995-3.822-324.654 53.737-399.711 100.01 100.422-58.1 245.725-91.054 372.95-89.432 327.29 4.17 678.776 226.497 730.981 627.28 59.928 460.065-261.254 844.04-713.113 845.2-497.107 1.274-799.451-437.844-720.43-832.257 3.945-19.696 1.976-38.852 8.554-57.467 3.766-69.35 30.026-178.053 86.674-289.124-57.237 29.543-130.13 123.016-166.12 209.6-51.885 124.82-70.17 274.09-53.71 416.106 1.239 10.69 2.361 21.35 3.763 31.948 66.58 390.594 406.647 687.955 816.214 687.955 457.335 0 828.078-370.743 828.078-828.075 0-186.993-62.005-359.486-166.54-498.103z" fill="url(#d)"/><path d="M1487.948 324.27C1338.478 127.893 1105.447 5.507 860.358.627c-191.995-3.822-324.654 53.737-399.711 100.01 100.422-58.1 245.725-91.054 372.95-89.432 327.29 4.17 678.776 226.497 730.981 627.28 59.928 460.065-261.254 844.04-713.113 845.2-497.107 1.274-799.451-437.844-720.43-832.257 3.945-19.696 1.976-38.852 8.554-57.467 3.766-69.35 30.026-178.053 86.674-289.124-57.237 29.543-130.13 123.016-166.12 209.6-51.885 124.82-70.17 274.09-53.71 416.106 1.239 10.69 2.361 21.35 3.763 31.948 66.58 390.594 406.647 687.955 816.214 687.955 457.335 0 828.078-370.743 828.078-828.075 0-186.993-62.005-359.486-166.54-498.103z" fill="url(#e)"/><path d="M1564.578 638.487c6.618 50.803 8.57 100.761 6.23 149.455 27.421-4.059 54.892-7.737 82.416-10.922-9.154-169.486-69.25-325.417-165.276-452.75C1338.478 127.893 1105.447 5.507 860.358.627c-191.995-3.822-324.654 53.737-399.711 100.01 100.422-58.1 245.725-91.054 372.95-89.432 327.29 4.17 678.776 226.497 730.981 627.28z" fill="url(#f)"/><path d="M1473.708 604.606C1427.17 185.76 1052.748-2.509 722.598.206c-127.232 1.046-272.53 31.332-372.951 89.432-46.91 28.92-71.314 53.413-73.59 55.753 2.66-2.204 10.616-8.738 23.812-17.773.432-.302.868-.598 1.301-.898.375-.255.767-.516 1.15-.775 47.87-33.005 101.898-56.977 159.03-73.679C548.601 26.758 643.071 18.197 733.9 20.474c373.387 21.481 636.884 330.657 646.057 659.757 7.592 272.375-215.882 489.592-473.48 502.174-187.345 9.15-363.818-81.29-450.066-262.22-19.187-40.25-33.259-81.16-40.598-130.616-40.86-275.346 144.485-510.158 314.45-568.29-91.705-79.906-321.446-74.486-492.44 51.011C114.681 362.668 34.798 500.177 8.332 664.23c-20.178 125.078-1.174 255.15 48.38 371.32 50.491 118.37 132.607 222.726 235.844 299.568 112.104 83.443 247.096 131.997 386.233 142.573a813.835 813.835 0 0061.676 2.322c547.09 0 784.478-414.293 733.243-875.407z" fill="url(#g)" transform="translate(111 11)"/><path d="M1473.708 604.606C1427.17 185.76 1052.748-2.509 722.598.206c-127.232 1.046-272.53 31.332-372.951 89.432-46.91 28.92-71.314 53.413-73.59 55.753 2.66-2.204 10.616-8.738 23.812-17.773.432-.302.868-.598 1.301-.898.375-.255.767-.516 1.15-.775 47.87-33.005 101.898-56.977 159.03-73.679C548.601 26.758 643.071 18.197 733.9 20.474c373.387 21.481 636.884 330.657 646.057 659.757 7.592 272.375-215.882 489.592-473.48 502.174-187.345 9.15-363.818-81.29-450.066-262.22-19.187-40.25-33.259-81.16-40.598-130.616-40.86-275.346 144.485-510.158 314.45-568.29-91.705-79.906-321.446-74.486-492.44 51.011C114.681 362.668 34.798 500.177 8.332 664.23c-20.178 125.078-1.174 255.15 48.38 371.32 50.491 118.37 132.607 222.726 235.844 299.568 112.104 83.443 247.096 131.997 386.233 142.573a813.835 813.835 0 0061.676 2.322c547.09 0 784.478-414.293 733.243-875.407z" fill="url(#h)" transform="translate(111 11)"/><g opacity=".53"><path d="M1473.708 604.606C1427.17 185.76 1052.748-2.509 722.598.206c-127.232 1.046-272.53 31.332-372.951 89.432-46.91 28.92-71.314 53.413-73.59 55.753 2.66-2.204 10.616-8.738 23.812-17.773.432-.302.868-.598 1.301-.898.375-.255.767-.516 1.15-.775 47.87-33.005 101.898-56.977 159.03-73.679C548.601 26.758 643.071 18.197 733.9 20.474c373.387 21.481 636.884 330.657 646.057 659.757 7.592 272.375-215.882 489.592-473.48 502.174-187.345 9.15-363.818-81.29-450.066-262.22-19.187-40.25-33.259-81.16-40.598-130.616-40.86-275.346 144.485-510.158 314.45-568.29-91.705-79.906-321.446-74.486-492.44 51.011C114.681 362.668 34.798 500.177 8.332 664.23c-20.178 125.078-1.174 255.15 48.38 371.32 50.491 118.37 132.607 222.726 235.844 299.568 112.104 83.443 247.096 131.997 386.233 142.573a813.835 813.835 0 0061.676 2.322c547.09 0 784.478-414.293 733.243-875.407z" fill="url(#i)" transform="translate(111 11)"/><path d="M1473.708 604.606C1427.17 185.76 1052.748-2.509 722.598.206c-127.232 1.046-272.53 31.332-372.951 89.432-46.91 28.92-71.314 53.413-73.59 55.753 2.66-2.204 10.616-8.738 23.812-17.773.432-.302.868-.598 1.301-.898.375-.255.767-.516 1.15-.775 47.87-33.005 101.898-56.977 159.03-73.679C548.601 26.758 643.071 18.197 733.9 20.474c373.387 21.481 636.884 330.657 646.057 659.757 7.592 272.375-215.882 489.592-473.48 502.174-187.345 9.15-363.818-81.29-450.066-262.22-19.187-40.25-33.259-81.16-40.598-130.616-40.86-275.346 144.485-510.158 314.45-568.29-91.705-79.906-321.446-74.486-492.44 51.011C114.681 362.668 34.798 500.177 8.332 664.23c-20.178 125.078-1.174 255.15 48.38 371.32 50.491 118.37 132.607 222.726 235.844 299.568 112.104 83.443 247.096 131.997 386.233 142.573a813.835 813.835 0 0061.676 2.322c547.09 0 784.478-414.293 733.243-875.407z" fill="url(#j)" transform="translate(111 11)"/></g><path d="M1017.478 1193.405c353.577-21.453 504.863-313.42 514.346-520.683C1546.63 349.068 1354.132.03 844.9 31.474c-90.829-2.277-185.299 6.284-272.552 31.792-76.487 23.335-129.611 53.843-159.029 73.68-.38.262-.77.51-1.15.774-.457.31-.856.593-1.301.898a451.893 451.893 0 00-23.223 17.368c14.158-9.663 189.77-113.126 433.755-81.182 292.291 38.27 559.62 265.181 559.62 564.575 0 230.354-178.45 406.216-387.386 393.661-310.427-18.652-388.596-336.213-227.189-473.423-43.543-9.356-125.376 8.965-182.35 93.946-51.12 76.252-48.235 194.077-16.684 277.623 86.248 180.929 262.842 273.578 450.066 262.219z" fill="url(#k)"/><path d="M1487.945 324.27c-22.163-29.125-46.37-56.404-71.983-82.13-20.544-21.75-42.56-41.79-65.683-60.349 13.322 11.65 26.147 23.877 38.217 36.907 44.78 48.34 80.245 105.447 100.928 167.966 43.191 130.547 40.371 293.914-42.085 422.227-98.261 152.904-258.23 228.384-431.155 224.707-7.478.033-14.985-.103-22.55-.557C683.21 1014.387 605.038 696.827 766.45 559.62c-43.55-9.357-125.376 8.964-182.35 93.944-51.124 76.252-48.238 194.077-16.685 277.62-19.19-40.246-33.26-81.16-40.598-130.612-40.862-275.347 144.485-510.161 314.45-568.294-91.706-79.903-321.445-74.483-492.444 51.013-99.638 73.129-170.925 177.133-208.542 301.07 5.53-69.54 31.86-173.405 85.979-279.522C169.029 334.38 96.13 427.856 60.147 514.435 8.262 639.258-10.027 788.53 6.43 930.546c1.245 10.686 2.366 21.347 3.764 31.949 66.578 390.591 406.649 687.953 816.219 687.953 457.331 0 828.076-370.745 828.076-828.077 0-186.99-62.007-359.483-166.545-498.102z" fill="url(#l)"/><path d="M1489.422 386.665c-20.684-62.522-56.148-119.63-100.928-167.965-52.76-56.947-118.462-100.22-188.015-133.92-59.174-28.67-120.97-51.297-184.834-65.358C901.256-5.762 781.243-5.316 673.176 17.43 555.69 42.156 452.373 92.879 387.033 156.291c48.993-29.7 117.335-53.788 166.031-66.063 225.98-56.962 474.815 4.735 644.47 167.051 34.11 32.634 64.695 69.15 89.494 109.37 101.21 164.151 91.634 370.517 12.726 492.227-58.62 90.417-184.15 175.238-301.273 174.317 179.683 9.406 347.246-66.182 448.857-224.3 82.458-128.315 85.274-291.682 42.084-422.228z" fill="url(#m)"/><path d="M1489.422 386.665c-20.684-62.522-56.148-119.63-100.928-167.965-52.76-56.947-118.462-100.22-188.015-133.92-59.174-28.67-120.97-51.297-184.834-65.358C901.256-5.762 781.243-5.316 673.176 17.43 555.69 42.156 452.373 92.879 387.033 156.291c48.993-29.7 117.335-53.788 166.031-66.063 225.98-56.962 474.815 4.735 644.47 167.051 34.11 32.634 64.695 69.15 89.494 109.37 101.21 164.151 91.634 370.517 12.726 492.227-58.62 90.417-184.15 175.238-301.273 174.317 179.683 9.406 347.246-66.182 448.857-224.3 82.458-128.315 85.274-291.682 42.084-422.228z" fill="url(#n)"/></g></svg>